<svg width="35" height="35" viewBox="0 0 35 35" fill="none" xmlns="http://www.w3.org/2000/svg">
<path d="M17.5 0.5C26.8888 0.5 34.5 8.11116 34.5 17.5C34.5 26.8888 26.8888 34.5 17.5 34.5C8.11116 34.5 0.5 26.8888 0.5 17.5C0.500001 8.11116 8.11116 0.5 17.5 0.5Z" fill="#FAFAFA" stroke="#09090B"/>
<path d="M8.57959 16.4419H19.7561L19.7991 16.3773L23.4361 10.0251L24.6449 7.90172L11.1657 7.9089L8.62622 10.0251H8.63339H19.1929L16.7324 14.3257H13.5186V12.3242L8.57959 16.4419Z" fill="#18181B"/>
<path d="M15.807 24.9785L18.2711 20.6743H21.4813V22.6758L26.4239 18.5617H15.2439L15.2008 18.6263L11.5674 24.9785L10.3586 27.1019L23.7553 27.0947L26.2948 24.9785H26.2876H15.807Z" fill="#18181B"/>
</svg>
