<?xml version="1.0" encoding="UTF-8"?>
<svg id="Layer_1" xmlns="http://www.w3.org/2000/svg" version="1.1" viewBox="0 0 208.66 167.84">
  <!-- Generator: Adobe Illustrator 30.3.0, SVG Export Plug-In . SVG Version: 2.1.3 Build 182)  -->
  <defs>
    <style>
      .st0, .st1 {
        fill: none;
        stroke: #231f20;
        stroke-miterlimit: 10;
      }

      .st2 {
        font-family: Krungthep, Krungthep;
        font-size: 40px;
      }

      .st2, .st3, .st4 {
        fill: #231f20;
      }

      .st1, .st4 {
        display: none;
      }

      .st5 {
        fill: #fff;
      }
    </style>
  </defs>
  <polygon class="st3" points="-1185.91 9.63 -1201.16 9.58 -1328.86 9.58 -1328.93 9.58 -1329.07 22.84 -1328.93 36.28 -1328.86 36.28 -1254.31 36.28 -1299.95 116.02 -1345.67 116.02 -1360.88 142.72 -1315.24 142.72 -1360.88 222.46 -1376.23 249.16 -1360.8 249.16 -1233.1 249.16 -1233.03 249.16 -1233.26 234.59 -1233.03 222.46 -1233.1 222.46 -1307.65 222.46 -1262.01 142.72 -1216.73 142.72 -1201.16 116.02 -1246.72 116.02 -1201.08 36.28 -1185.91 9.63"/>
  <polygon class="st3" points="-1220.4 9.61 -1298.66 9.59 -1298.66 -15.52 -1360.66 36.15 -1220.37 36.15 -1220.4 9.61"/>
  <polygon class="st3" points="-1341.02 248.59 -1262.76 248.6 -1262.76 273.72 -1200.76 222.05 -1341.05 222.05 -1341.02 248.59"/>
  <line class="st1" x1="-1300.11" y1="37.36" x2="-1406.19" y2="222.64"/>
  <line class="st1" x1="-1271.46" y1="65.66" x2="-1377.55" y2="250.93"/>
  <line class="st1" x1="-1155.92" y1="37.36" x2="-1262.01" y2="222.64"/>
  <line class="st1" x1="-1149.62" y1="131.07" x2="-1255.7" y2="316.35"/>
  <line class="st0" x1="-1178.31" y1="-2.64" x2="-1284.39" y2="182.64"/>
  <path class="st0" d="M-699.5,273.83"/>
  <polyline class="st3" points="-575.4 138.41 -529.76 58.67 -514.59 32.01 -683.74 32.11 -715.61 58.67 -715.54 58.67 -582.99 58.67 -613.9 112.67 -654.23 112.67 -654.23 87.55 -716.23 139.22 -575.94 139.22"/>
  <polyline class="st3" points="-633.09 166.63 -678.73 246.36 -693.9 273.02 -525.75 272.93 -493.88 246.36 -493.96 246.36 -625.5 246.36 -594.59 192.36 -554.26 192.37 -554.26 217.48 -492.26 165.81 -632.55 165.81"/>
  <line class="st1" x1="-700.73" y1="50.25" x2="-828.48" y2="279.7"/>
  <rect class="st4" x="-716.08" y="139.21" width="223.75" height="2"/>
  <rect class="st4" x="-716.08" y="163.98" width="223.75" height="2"/>
  <text class="st2" transform="translate(4.22 150.01)"><tspan x="0" y="0">Currenzy</tspan></text>
  <rect class="st4" x="-184.82" y="-203.95" width="81.81" height="77.32" rx="-24.65" ry="-24.65"/>
  <g>
    <circle cx="104.19" cy="58.18" r="48.79"/>
    <g>
      <polygon class="st5" points="79.32 55.23 110.48 55.23 110.6 55.05 120.74 37.34 124.11 31.42 86.53 31.44 79.45 37.34 79.47 37.34 108.91 37.34 102.05 49.33 93.09 49.33 93.09 43.75 79.32 55.23"/>
      <polygon class="st5" points="99.47 79.03 106.34 67.03 115.29 67.03 115.29 72.61 129.07 61.14 97.9 61.14 97.78 61.32 87.65 79.03 84.28 84.95 121.63 84.93 128.71 79.03 128.69 79.03 99.47 79.03"/>
    </g>
  </g>
</svg>